<svg xmlns="http://www.w3.org/2000/svg">
  <symbol id="earth" viewBox="0 0 285.93 250">
    <title>Earth symbol</title>
    <path d="M276.94,0H9A9,9,0,0,0,1.22,13.46l134,232.06a9,9,0,0,0,15.54,0l134-232.06A9,9,0,0,0,276.94,0ZM107.18,137h89.5l-44.75,77.51ZM210.5,113H93.37L42.29,24.56H261.58Z" />
  </symbol>

  <symbol id="water" viewBox="0 0 285.93 250">
    <title>Water symbol</title>
    <path d="M1.22,13.46l134,232.06a9,9,0,0,0,15.54,0l134-232.06A9,9,0,0,0,276.94,0H9A9,9,0,0,0,1.22,13.46ZM261.58,24.56,151.93,214.47,42.29,24.56Z" />
  </symbol>

  <symbol id="air" viewBox="0 0 285.93 250">
    <title>Air symbol</title>
    <path d="M284.71,236.54,150.73,4.49a9,9,0,0,0-15.54,0L1.22,236.54A9,9,0,0,0,9,250h268A9,9,0,0,0,284.71,236.54ZM178.74,113H89.24L134,35.53ZM24.35,225.44,75.43,137H192.56l51.08,88.48Z" />
  </symbol>

  <symbol id="fire" viewBox="0 0 285.93 250">
    <title>Fire symbol</title>
    <path d="M284.71,236.54,150.73,4.49a9,9,0,0,0-15.54,0L1.22,236.54A9,9,0,0,0,9,250h268A9,9,0,0,0,284.71,236.54ZM24.35,225.44,134,35.53,243.64,225.44Z" />
  </symbol>

  <symbol id="aether" viewBox="0 0 250 250">
    <title>Aether symbol</title>
    <path d="M125,0A125,125,0,1,0,250,125,125,125,0,0,0,125,0Zm0,235c-52.47,0-95-49.25-95-110S72.53,15,125,15s95,49.25,95,110S177.47,235,125,235Z" />
  </symbol>
  <symbol
    id="transmutation"
    version="1.1" viewBox="0 0 300.88943 300.88943" xmlns="http://www.w3.org/2000/svg">
    <g transform="translate(385.23 -85.26)" fill="none">
    <path d="m-234.79 87.76a147.94 147.94 0 0 0-147.94 147.94 147.94 147.94 0 0 0 147.94 147.94 147.94 147.94 0 0 0 147.94-147.94 147.94 147.94 0 0 0-147.94-147.94zm0.65835 21.027a126.21 126.21 0 0 1 126.21 126.21 126.21 126.21 0 0 1-126.21 126.21 126.21 126.21 0 0 1-126.21-126.21 126.21 126.21 0 0 1 36.7-88.845v88.518l0.14469 88.544h178.11v-177.36h-177.98a126.21 126.21 0 0 1 89.236-37.072zm-7.32 37.072a89.165 89.165 0 0 0-82.194 88.816 89.165 89.165 0 0 0 79.585 88.544h19.641a89.165 89.165 0 0 0 79.028-86.398v-3.6649a89.165 89.165 0 0 0-0.3204-6.4058l0.0398-0.0439-0.0444-0.0403a89.165 89.165 0 0 0-81.167-80.807h-7.2156zm7.3675 12.324 75.435 67.046a76.068 76.068 0 0 1 0.0227 0.18965l-75.458 84.9-76.068-76.068zm-14.538 1.4681-60.107 60.107a76.068 76.068 0 0 1 60.107-60.107zm29.663 0.0517a76.068 76.068 0 0 1 57.685 52.74zm60.627 80.849a76.068 76.068 0 0 1-62.763 68.646zm-150.11 9.3307 58.809 58.809a76.068 76.068 0 0 1-58.809-58.809z" stroke="#000" stroke-width="5"/>
    </g>
   </symbol>
</svg>
