<?xml version="1.0" encoding="UTF-8" standalone="no"?>
<svg
   xmlns:dc="http://purl.org/dc/elements/1.1/"
   xmlns:cc="http://creativecommons.org/ns#"
   xmlns:rdf="http://www.w3.org/1999/02/22-rdf-syntax-ns#"
   xmlns:svg="http://www.w3.org/2000/svg"
   xmlns="http://www.w3.org/2000/svg"
   id="svg8"
   version="1.1"
   viewBox="0 0 210 297"
   height="297mm"
   width="210mm">
  
  <g
     id="layer1">
    <path
       d="M -211.5866,126.67461 A 147.94472,147.94472 0 0 0 -359.53158,274.61907 147.94472,147.94472 0 0 0 -211.5866,422.56405 147.94472,147.94472 0 0 0 -63.642147,274.61907 147.94472,147.94472 0 0 0 -211.5866,126.67461 Z m 0.65835,21.02662 a 126.21395,126.21395 0 0 1 126.214004,126.214 126.21395,126.21395 0 0 1 -126.214004,126.214 126.21395,126.21395 0 0 1 -126.214,-126.214 126.21395,126.21395 0 0 1 36.70009,-88.8447 v 88.51811 l 0.14469,88.54395 h 89.5873 88.52121 v -92.22435 -85.13537 h -88.70725 -89.26845 a 126.21395,126.21395 0 0 1 89.23641,-37.07164 z m -7.31996,37.07164 a 89.16458,89.16458 0 0 0 -82.19395,88.81577 89.16458,89.16458 0 0 0 79.5848,88.54395 h 10.14719 9.49348 a 89.16458,89.16458 0 0 0 79.02773,-86.39783 v -3.66489 a 89.16458,89.16458 0 0 0 -0.3204,-6.40581 l 0.0398,-0.0439 -0.0444,-0.0403 a 89.16458,89.16458 0 0 0 -81.16663,-80.80695 h -7.21558 z m 7.36751,12.3238 75.43518,67.04552 a 76.067702,76.067702 0 0 1 0.0227,0.18965 l -75.45791,84.90024 -76.06771,-76.0677 z m -14.53762,1.46812 -60.10744,60.10745 a 76.067702,76.067702 0 0 1 60.10744,-60.10745 z m 29.66331,0.0517 a 76.067702,76.067702 0 0 1 57.68537,52.74045 z m 60.62679,80.84881 a 76.067702,76.067702 0 0 1 -62.76258,68.64594 z m -150.1066,9.3307 58.80933,58.80933 A 76.067702,76.067702 0 0 1 -285.23482,288.796 Z"
       style="opacity:1;fill:none;stroke:#000000;stroke-width:5;stroke-linecap:butt;stroke-linejoin:miter;stroke-miterlimit:4;stroke-dasharray:none;stroke-opacity:1"
       id="path4658" />
    <path
       d=""
       cx="-126.09776"
       cy="41.436874"
       rx="12.722029"
       ry="1.1225319"
       id="path4515"
       style="opacity:0.447;fill:none;stroke-width:0.26458332" />
    <path
       d="M -5.2384796,86.525238 A 60.429642,46.210903 0 0 1 -63.056874,132.69298 l -2.611247,-46.167742 z"
       id="path4517"
       style="opacity:0.447;fill:none;stroke-width:0.26458332" />
    <path
       d="M -47.146347,68.938911 A 45.836723,27.502035 0 0 1 -91.002403,96.415258 L -92.98307,68.938911 Z"
       id="path4519"
       style="opacity:0.447;fill:none;stroke-width:0.26458332" />
  </g>
</svg>
